<svg width="1495" height="220" viewBox="0 0 1495 220" fill="none" xmlns="http://www.w3.org/2000/svg">
<path d="M426.8 167H410.8V135H321.36V119H410.8V71H353.36C346.107 71 339.44 72.8133 333.36 76.44C327.28 79.96 322.427 84.76 318.8 90.84C315.28 96.92 313.52 103.64 313.52 111V167H297.52V111C297.52 103.32 298.96 96.12 301.84 89.4C304.72 82.5733 308.72 76.6 313.84 71.48C318.96 66.2533 324.88 62.2 331.6 59.32C338.427 56.44 345.68 55 353.36 55H426.8V167ZM560.699 167H453.659V55H469.659V151H560.699V167ZM591.69 167H575.69V55H591.69V167ZM735.783 167H663.623C655.836 167 648.796 165.56 642.503 162.68C636.209 159.8 630.769 155.8 626.182 150.68C621.703 145.56 618.236 139.64 615.783 132.92C613.329 126.093 612.103 118.787 612.103 111C612.103 103.32 613.329 96.12 615.783 89.4C618.236 82.5733 621.703 76.6 626.182 71.48C630.769 66.2533 636.209 62.2 642.503 59.32C648.796 56.44 655.836 55 663.623 55H735.783V71H663.623C656.263 71 649.916 72.8133 644.583 76.44C639.356 79.96 635.303 84.76 632.423 90.84C629.543 96.92 628.103 103.64 628.103 111C628.103 118.36 629.543 125.08 632.423 131.16C635.303 137.133 639.356 141.933 644.583 145.56C649.916 149.187 656.263 151 663.623 151H719.783V119H651.943V103H735.783V167ZM775.596 167H759.596V55H767.596C775.383 55 783.81 56.4933 792.876 59.48C802.05 62.4667 811.223 66.68 820.396 72.12C829.57 77.56 838.21 84.0667 846.316 91.64C854.53 99.1067 861.57 107.427 867.436 116.6V55H883.436V167H867.436C867.436 157.187 865.41 147.8 861.356 138.84C857.41 129.773 852.13 121.453 845.516 113.88C838.903 106.2 831.543 99.4267 823.436 93.56C815.436 87.5867 807.276 82.7333 798.956 79C790.636 75.16 782.85 72.7067 775.596 71.64V167ZM1054.7 126.68C1054.7 134.04 1052.88 140.813 1049.26 147C1045.63 153.08 1040.78 157.933 1034.7 161.56C1028.62 165.187 1021.84 167 1014.38 167C1007.76 167 1001.63 165.56 995.978 162.68C990.324 159.8 985.631 155.907 981.898 151C978.271 155.907 973.631 159.8 967.978 162.68C962.324 165.56 956.191 167 949.578 167C942.218 167 935.444 165.187 929.258 161.56C923.178 157.933 918.324 153.08 914.698 147C911.071 140.813 909.258 134.04 909.258 126.68V55H925.258V126.68C925.258 131.16 926.324 135.267 928.458 139C930.698 142.627 933.631 145.56 937.258 147.8C940.991 149.933 945.098 151 949.578 151C953.951 151 957.951 149.987 961.578 147.96C965.204 145.827 968.084 143 970.218 139.48C972.458 135.96 973.684 132.067 973.898 127.8V55H990.058V126.68C990.058 131.16 991.124 135.267 993.258 139C995.498 142.627 998.431 145.56 1002.06 147.8C1005.79 149.933 1009.9 151 1014.38 151C1018.86 151 1022.91 149.933 1026.54 147.8C1030.27 145.56 1033.2 142.627 1035.34 139C1037.58 135.267 1038.7 131.16 1038.7 126.68V55H1054.7V126.68ZM1196.37 167H1080.53V55H1196.37V71H1096.53V151H1196.37V167ZM1182.77 119H1104.53V103H1182.77V119ZM1348 135C1348 140.867 1346.56 146.253 1343.68 151.16C1340.8 155.96 1336.91 159.8 1332 162.68C1327.2 165.56 1321.87 167 1316 167H1240.16V151H1316C1320.37 151 1324.11 149.453 1327.2 146.36C1330.4 143.16 1332 139.373 1332 135C1332 130.627 1330.4 126.893 1327.2 123.8C1324.11 120.6 1320.37 119 1316 119H1240.16V103H1300C1304.37 103 1308.11 101.453 1311.2 98.36C1314.4 95.16 1316 91.3733 1316 87C1316 82.6267 1314.4 78.8933 1311.2 75.8C1308.11 72.6 1304.37 71 1300 71H1232.16V167H1216.16V55H1300C1305.87 55 1311.2 56.44 1316 59.32C1320.91 62.2 1324.8 66.0933 1327.68 71C1330.56 75.8 1332 81.1333 1332 87C1332 90.3067 1331.52 93.5067 1330.56 96.6C1329.6 99.5867 1328.27 102.36 1326.56 104.92C1332.85 107.053 1337.97 110.893 1341.92 116.44C1345.97 121.88 1348 128.067 1348 135ZM1489.68 135C1489.68 140.867 1488.24 146.253 1485.36 151.16C1482.48 155.96 1478.64 159.8 1473.84 162.68C1469.04 165.56 1463.66 167 1457.68 167H1360.4V151H1457.68C1462.16 151 1465.95 149.453 1469.04 146.36C1472.14 143.16 1473.68 139.373 1473.68 135C1473.68 130.627 1472.14 126.893 1469.04 123.8C1465.95 120.6 1462.16 119 1457.68 119H1392.4C1386.54 119 1381.15 117.56 1376.24 114.68C1371.44 111.8 1367.6 107.96 1364.72 103.16C1361.84 98.2533 1360.4 92.8667 1360.4 87C1360.4 81.1333 1361.84 75.8 1364.72 71C1367.6 66.0933 1371.44 62.2 1376.24 59.32C1381.15 56.44 1386.54 55 1392.4 55H1481.68V71H1392.4C1388.03 71 1384.24 72.6 1381.04 75.8C1377.95 78.8933 1376.4 82.6267 1376.4 87C1376.4 91.3733 1377.95 95.16 1381.04 98.36C1384.24 101.453 1388.03 103 1392.4 103H1457.68C1463.66 103 1469.04 104.44 1473.84 107.32C1478.64 110.2 1482.48 114.093 1485.36 119C1488.24 123.8 1489.68 129.133 1489.68 135Z" fill="white"/>
<path d="M114.792 219.787L152.248 198.113L152.263 198.104L152.458 197.969L152.592 197.85C152.686 197.758 152.772 197.647 152.844 197.523C152.981 197.281 153.053 197.01 153.053 196.733L153.051 110.918L227.205 68.0056C227.441 67.8703 227.642 67.6752 227.786 67.4259C227.927 67.1846 228 66.9094 228 66.6316V23.2698C228 22.7006 227.698 22.1783 227.208 21.8963L189.747 0.21811L189.721 0.204298L189.687 0.188569L189.625 0.153273L189.555 0.125722L189.636 0.166581L189.687 0.188569L189.715 0.204298L189.636 0.166581L189.514 0.110016L189.324 0.046786C189.252 0.0292539 189.18 0.0167937 189.107 0.00940418C189.056 0.0028045 189.001 4.76837e-06 188.947 4.76837e-06C188.662 4.76837e-06 188.393 0.0748818 188.149 0.209669L113.999 43.1231L39.8432 0.211132C39.6007 0.070617 39.3285 0.00036444 39.0557 0.00036444L39.0055 0.00115572C38.7495 0.00924166 38.4945 0.0792309 38.2646 0.211132L0.792469 21.8955C0.304796 22.1764 0 22.7016 0 23.2674V66.6313C0 67.2234 0.325489 67.7391 0.806601 68.0121L74.9503 110.921L74.9507 196.691C74.9432 196.974 75.0114 197.263 75.1634 197.527C75.3013 197.765 75.501 197.964 75.7388 198.103L113.208 219.787C113.698 220.071 114.302 220.071 114.792 219.787ZM3.16581 63.8874V24.1834L37.4736 4.32932V44.0334L3.16581 63.8874ZM224.835 63.8856L190.526 44.0321V4.32812L224.835 24.1837V63.8856ZM114.002 86.4858L40.6421 44.0375L40.6373 4.33131L148.304 66.638L114.002 86.4858ZM151.47 64.8012L117.164 44.9491L187.359 4.334V44.0346L151.47 64.8012ZM74.9445 107.253L4.74874 66.6318L18.8246 58.4886L39.0517 46.7814L74.9472 67.5526L74.9445 107.253ZM115.58 128.936V89.232L152.235 68.0252L178.47 52.8409L188.945 46.7792L223.253 66.6328L115.58 128.936ZM78.1125 193.985L78.108 69.3785L112.411 89.2289L112.418 131.683L112.418 131.701V174.133L78.1125 193.985ZM149.887 193.987L115.58 174.136V132.597L149.887 112.746V193.987ZM114.002 216.581L79.6902 196.732L114.002 176.881L148.31 196.732L114.002 216.581Z" fill="white"/>
</svg>
